<svg xmlns="http://www.w3.org/2000/svg" fill="none" viewBox="0 0 300 300"><circle cx="150" cy="150" r="150" fill="url(#a)"/><path fill="#fff" d="M255 136.919h-37.459l5.774-7.824-41.388-.095-20.218 28.041H201l-17.354 26.214H154L190 214l72-30.745h-35.63zM247 97h-42l-5.768 8h41.864zM235.561 112.5h-41.737l-6.324 8.771h41.588zM150.612 132.576q0 10.621-5.759 19.221-5.76 8.598-16.77 12.645L154 213h-42.009l-20.666-42.32h-13.89V213H40V97h71.314q12.535 0 21.343 4.89 8.978 4.72 13.382 12.982 4.573 8.093 4.573 17.704m-38.113 1.517q0-4.552-3.049-7.587t-7.453-3.035H77.435v21.413h24.562q4.404 0 7.453-3.035 3.05-3.204 3.049-7.756"/><defs><linearGradient id="a" x1="150" x2="150" y1="0" y2="300" gradientUnits="userSpaceOnUse"><stop stop-color="#f0db4f"/><stop offset=".92" stop-color="#ff5d13"/></linearGradient></defs></svg>